{
  "accessors": [
    {
      "bufferView": 2,
      "componentType": 5126,
      "count": 65532,
      "max": [
        21.711450576782227,
        8.176797866821289,
        28.631589889526367
      ],
      "min": [
        -19.017419815063477,
        -12.030860900878906,
        -26.810314178466797
      ],
      "type": "VEC3"
    },
    {
      "bufferView": 2,
      "byteOffset": 786384,
      "componentType": 5126,
      "count": 65532,
      "max": [
        0.9999883770942688,
        0.9999944567680359,
        0.9999656677246094
      ],
      "min": [
        -0.9999725222587585,
        -0.9997937083244324,
        -0.9999861121177673
      ],
      "type": "VEC3"
    },
    {
      "bufferView": 1,
      "componentType": 5126,
      "count": 65532,
      "max": [
        0.9999997019767761,
        0.9999991655349731
      ],
      "min": [
        4.284311944502406e-05,
        4.696496944234241e-06
      ],
      "type": "VEC2"
    },
    {
      "bufferView": 1,
      "byteOffset": 524256,
      "componentType": 5126,
      "count": 65532,
      "max": [
        0.9999997019767761,
        0.9999991655349731
      ],
      "min": [
        4.284311944502406e-05,
        4.696496944234241e-06
      ],
      "type": "VEC2"
    },
    {
      "bufferView": 0,
      "componentType": 5125,
      "count": 329130,
      "type": "SCALAR"
    },
    {
      "bufferView": 2,
      "byteOffset": 1572768,
      "componentType": 5126,
      "count": 4702,
      "max": [
        -1.5753421783447266,
        5.648258209228516,
        9.596847534179688
      ],
      "min": [
        -18.753976821899414,
        -5.740739345550537,
        -0.14553070068359375
      ],
      "type": "VEC3"
    },
    {
      "bufferView": 2,
      "byteOffset": 1629192,
      "componentType": 5126,
      "count": 4702,
      "max": [
        0.999832034111023,
        0.9996231198310852,
        0.9998762607574463
      ],
      "min": [
        -0.9997639656066895,
        -0.9937558770179749,
        -0.998714804649353
      ],
      "type": "VEC3"
    },
    {
      "bufferView": 1,
      "byteOffset": 1048512,
      "componentType": 5126,
      "count": 4702,
      "max": [
        0.9998993277549744,
        0.9994593858718872
      ],
      "min": [
        0.004165380261838436,
        9.31834802031517e-05
      ],
      "type": "VEC2"
    },
    {
      "bufferView": 1,
      "byteOffset": 1086128,
      "componentType": 5126,
      "count": 4702,
      "max": [
        0.9998993277549744,
        0.9994593858718872
      ],
      "min": [
        0.004165380261838436,
        9.31834802031517e-05
      ],
      "type": "VEC2"
    },
    {
      "bufferView": 0,
      "byteOffset": 1316520,
      "componentType": 5125,
      "count": 22272,
      "type": "SCALAR"
    },
    {
      "bufferView": 2,
      "byteOffset": 1685616,
      "componentType": 5126,
      "count": 65532,
      "max": [
        19.43377113342285,
        9.271770477294922,
        28.677738189697266
      ],
      "min": [
        -18.984861373901367,
        -11.773022651672363,
        -27.346946716308594
      ],
      "type": "VEC3"
    },
    {
      "bufferView": 2,
      "byteOffset": 2472000,
      "componentType": 5126,
      "count": 65532,
      "max": [
        0.9999516606330872,
        0.9999982118606567,
        0.9999960660934448
      ],
      "min": [
        -0.999979555606842,
        -0.9997387528419495,
        -0.9999454617500305
      ],
      "type": "VEC3"
    },
    {
      "bufferView": 1,
      "byteOffset": 1123744,
      "componentType": 5126,
      "count": 65532,
      "max": [
        0.9999743700027466,
        0.9987190961837769
      ],
      "min": [
        1.2962077562406193e-05,
        3.330177059979178e-05
      ],
      "type": "VEC2"
    },
    {
      "bufferView": 1,
      "byteOffset": 1648000,
      "componentType": 5126,
      "count": 65532,
      "max": [
        0.9999743700027466,
        0.9987190961837769
      ],
      "min": [
        1.2962077562406193e-05,
        3.330177059979178e-05
      ],
      "type": "VEC2"
    },
    {
      "bufferView": 0,
      "byteOffset": 1405608,
      "componentType": 5125,
      "count": 327756,
      "type": "SCALAR"
    },
    {
      "bufferView": 2,
      "byteOffset": 3258384,
      "componentType": 5126,
      "count": 7864,
      "max": [
        19.43754768371582,
        7.892345428466797,
        9.121360778808594
      ],
      "min": [
        -18.62795639038086,
        -6.180612087249756,
        -10.45792007446289
      ],
      "type": "VEC3"
    },
    {
      "bufferView": 2,
      "byteOffset": 3352752,
      "componentType": 5126,
      "count": 7864,
      "max": [
        0.9998619556427002,
        0.9999748468399048,
        0.9999339580535889
      ],
      "min": [
        -0.998988926410675,
        -0.9994668364524841,
        -0.999364972114563
      ],
      "type": "VEC3"
    },
    {
      "bufferView": 1,
      "byteOffset": 2172256,
      "componentType": 5126,
      "count": 7864,
      "max": [
        0.9993953704833984,
        0.9955013394355774
      ],
      "min": [
        0.0033367928117513657,
        0.0005271025002002716
      ],
      "type": "VEC2"
    },
    {
      "bufferView": 1,
      "byteOffset": 2235168,
      "componentType": 5126,
      "count": 7864,
      "max": [
        0.9993953704833984,
        0.9955013394355774
      ],
      "min": [
        0.0033367928117513657,
        0.0005271025002002716
      ],
      "type": "VEC2"
    },
    {
      "bufferView": 0,
      "byteOffset": 2716632,
      "componentType": 5125,
      "count": 36843,
      "type": "SCALAR"
    },
    {
      "bufferView": 2,
      "byteOffset": 3447120,
      "componentType": 5126,
      "count": 65532,
      "max": [
        21.672847747802734,
        8.177406311035156,
        28.687442779541016
      ],
      "min": [
        -18.788461685180664,
        -12.055164337158203,
        -26.967334747314453
      ],
      "type": "VEC3"
    },
    {
      "bufferView": 2,
      "byteOffset": 4233504,
      "componentType": 5126,
      "count": 65532,
      "max": [
        0.9998164176940918,
        0.9999731779098511,
        0.9999635815620422
      ],
      "min": [
        -1.0,
        -0.9999567866325378,
        -0.9999291896820068
      ],
      "type": "VEC3"
    },
    {
      "bufferView": 1,
      "byteOffset": 2298080,
      "componentType": 5126,
      "count": 65532,
      "max": [
        0.9994770884513855,
        0.999990701675415
      ],
      "min": [
        6.8818917497992516e-06,
        3.561563789844513e-05
      ],
      "type": "VEC2"
    },
    {
      "bufferView": 1,
      "byteOffset": 2822336,
      "componentType": 5126,
      "count": 65532,
      "max": [
        0.9994770884513855,
        0.999990701675415
      ],
      "min": [
        6.8818917497992516e-06,
        3.561563789844513e-05
      ],
      "type": "VEC2"
    },
    {
      "bufferView": 0,
      "byteOffset": 2864004,
      "componentType": 5125,
      "count": 326742,
      "type": "SCALAR"
    },
    {
      "bufferView": 2,
      "byteOffset": 5019888,
      "componentType": 5126,
      "count": 8059,
      "max": [
        20.590234756469727,
        9.279651641845703,
        10.452547073364258
      ],
      "min": [
        -18.683015823364258,
        -5.84159517288208,
        -10.578765869140625
      ],
      "type": "VEC3"
    },
    {
      "bufferView": 2,
      "byteOffset": 5116596,
      "componentType": 5126,
      "count": 8059,
      "max": [
        0.9998206496238708,
        0.9996192455291748,
        1.0
      ],
      "min": [
        -0.9989540576934814,
        -0.9993723034858704,
        -0.999336302280426
      ],
      "type": "VEC3"
    },
    {
      "bufferView": 1,
      "byteOffset": 3346592,
      "componentType": 5126,
      "count": 8059,
      "max": [
        0.9994592666625977,
        0.9980323314666748
      ],
      "min": [
        0.0029640558641403913,
        0.0017863288521766663
      ],
      "type": "VEC2"
    },
    {
      "bufferView": 1,
      "byteOffset": 3411064,
      "componentType": 5126,
      "count": 8059,
      "max": [
        0.9994592666625977,
        0.9980323314666748
      ],
      "min": [
        0.0029640558641403913,
        0.0017863288521766663
      ],
      "type": "VEC2"
    },
    {
      "bufferView": 0,
      "byteOffset": 4170972,
      "componentType": 5125,
      "count": 36888,
      "type": "SCALAR"
    }
  ],
  "asset": {
    "extras": {
      "author": "matousekfoto (https://sketchfab.com/matousekfoto)",
      "license": "CC-BY-4.0 (http://creativecommons.org/licenses/by/4.0/)",
      "source": "https://sketchfab.com/3d-models/debris-concrete-junk-3f161258ebde4bd8afc98e57c9e06890",
      "title": "Debris concrete junk"
    },
    "generator": "Sketchfab-12.67.0",
    "version": "2.0"
  },
  "bufferViews": [
    {
      "buffer": 0,
      "byteLength": 4318524,
      "name": "floatBufferViews",
      "target": 34963
    },
    {
      "buffer": 0,
      "byteLength": 3475536,
      "byteOffset": 4318524,
      "byteStride": 8,
      "name": "floatBufferViews",
      "target": 34962
    },
    {
      "buffer": 0,
      "byteLength": 5213304,
      "byteOffset": 7794060,
      "byteStride": 12,
      "name": "floatBufferViews",
      "target": 34962
    }
  ],
  "buffers": [
    {
      "byteLength": 13007364,
      "uri": "scene.bin"
    }
  ],
  "extensionsUsed": [
    "KHR_materials_unlit"
  ],
  "images": [
    {
      "uri": "textures/material0_baseColor.jpeg"
    },
    {
      "uri": "textures/material2_baseColor.jpeg"
    },
    {
      "uri": "textures/material1_baseColor.jpeg"
    }
  ],
  "materials": [
    {
      "doubleSided": true,
      "extensions": {
        "KHR_materials_unlit": {}
      },
      "name": "material0",
      "pbrMetallicRoughness": {
        "baseColorTexture": {
          "index": 0
        },
        "metallicFactor": 0.0
      }
    },
    {
      "doubleSided": true,
      "extensions": {
        "KHR_materials_unlit": {}
      },
      "name": "material2",
      "pbrMetallicRoughness": {
        "baseColorTexture": {
          "index": 1
        },
        "metallicFactor": 0.0
      }
    },
    {
      "doubleSided": true,
      "extensions": {
        "KHR_materials_unlit": {}
      },
      "name": "material1",
      "pbrMetallicRoughness": {
        "baseColorTexture": {
          "index": 2
        },
        "metallicFactor": 0.0
      }
    }
  ],
  "meshes": [
    {
      "name": "Model_material0_0",
      "primitives": [
        {
          "attributes": {
            "NORMAL": 1,
            "POSITION": 0,
            "TEXCOORD_0": 2,
            "TEXCOORD_1": 3
          },
          "indices": 4,
          "material": 0,
          "mode": 4
        }
      ]
    },
    {
      "name": "Model_material0_0",
      "primitives": [
        {
          "attributes": {
            "NORMAL": 6,
            "POSITION": 5,
            "TEXCOORD_0": 7,
            "TEXCOORD_1": 8
          },
          "indices": 9,
          "material": 0,
          "mode": 4
        }
      ]
    },
    {
      "name": "Model_material2_0",
      "primitives": [
        {
          "attributes": {
            "NORMAL": 11,
            "POSITION": 10,
            "TEXCOORD_0": 12,
            "TEXCOORD_1": 13
          },
          "indices": 14,
          "material": 1,
          "mode": 4
        }
      ]
    },
    {
      "name": "Model_material2_0",
      "primitives": [
        {
          "attributes": {
            "NORMAL": 16,
            "POSITION": 15,
            "TEXCOORD_0": 17,
            "TEXCOORD_1": 18
          },
          "indices": 19,
          "material": 1,
          "mode": 4
        }
      ]
    },
    {
      "name": "Model_material1_0",
      "primitives": [
        {
          "attributes": {
            "NORMAL": 21,
            "POSITION": 20,
            "TEXCOORD_0": 22,
            "TEXCOORD_1": 23
          },
          "indices": 24,
          "material": 2,
          "mode": 4
        }
      ]
    },
    {
      "name": "Model_material1_0",
      "primitives": [
        {
          "attributes": {
            "NORMAL": 26,
            "POSITION": 25,
            "TEXCOORD_0": 27,
            "TEXCOORD_1": 28
          },
          "indices": 29,
          "material": 2,
          "mode": 4
        }
      ]
    }
  ],
  "nodes": [
    {
      "children": [
        1
      ],
      "matrix": [
        0.08332342157731709,
        0.0012852337283959098,
        9.492702075528691e-06,
        0.0,
        -0.0012293788194719588,
        0.079877453442736,
        -0.023717635086704308,
        0.0,
        -0.00037489145714466113,
        0.023714674722592238,
        0.07988691071332221,
        0.0,
        -0.017298223450779915,
        1.7889677286148071,
        0.3501530289649967,
        1.0
      ],
      "name": "Sketchfab_model"
    },
    {
      "children": [
        2
      ],
      "matrix": [
        0.009999999776482582,
        0.0,
        0.0,
        0.0,
        0.0,
        0.0,
        0.009999999776482582,
        0.0,
        0.0,
        -0.009999999776482582,
        0.0,
        0.0,
        0.0,
        0.0,
        0.0,
        1.0
      ],
      "name": "debris-concrete-junk.fbx"
    },
    {
      "children": [
        3
      ],
      "name": "RootNode"
    },
    {
      "children": [
        4,
        5,
        6,
        7,
        8,
        9
      ],
      "matrix": [
        100.0,
        0.0,
        0.0,
        0.0,
        0.0,
        -1.629206793918314e-05,
        -99.99999999999868,
        0.0,
        0.0,
        99.99999999999868,
        -1.629206793918314e-05,
        0.0,
        0.0,
        0.0,
        0.0,
        1.0
      ],
      "name": "Model"
    },
    {
      "mesh": 0,
      "name": "Model_material0_0"
    },
    {
      "mesh": 1,
      "name": "Model_material0_0"
    },
    {
      "mesh": 2,
      "name": "Model_material2_0"
    },
    {
      "mesh": 3,
      "name": "Model_material2_0"
    },
    {
      "mesh": 4,
      "name": "Model_material1_0"
    },
    {
      "mesh": 5,
      "name": "Model_material1_0"
    }
  ],
  "samplers": [
    {
      "magFilter": 9729,
      "minFilter": 9987,
      "wrapS": 10497,
      "wrapT": 10497
    }
  ],
  "scene": 0,
  "scenes": [
    {
      "name": "Sketchfab_Scene",
      "nodes": [
        0
      ]
    }
  ],
  "textures": [
    {
      "sampler": 0,
      "source": 0
    },
    {
      "sampler": 0,
      "source": 1
    },
    {
      "sampler": 0,
      "source": 2
    }
  ]
}
