{
  "accessors": [
    {
      "bufferView": 2,
      "componentType": 5126,
      "count": 65532,
      "max": [
        168.92660522460938,
        102.39529418945313,
        19.969953536987305
      ],
      "min": [
        -242.82919311523438,
        -169.7706298828125,
        -67.48135375976563
      ],
      "type": "VEC3"
    },
    {
      "bufferView": 2,
      "byteOffset": 786384,
      "componentType": 5126,
      "count": 65532,
      "max": [
        0.9999469518661499,
        0.9998809099197388,
        0.9999985694885254
      ],
      "min": [
        -0.9999253749847412,
        -0.999977707862854,
        -0.9949800968170166
      ],
      "type": "VEC3"
    },
    {
      "bufferView": 1,
      "componentType": 5126,
      "count": 65532,
      "max": [
        0.9971906542778015,
        0.9969625473022461
      ],
      "min": [
        0.0027352720499038696,
        0.0027116837445646524
      ],
      "type": "VEC2"
    },
    {
      "bufferView": 0,
      "componentType": 5125,
      "count": 339393,
      "type": "SCALAR"
    },
    {
      "bufferView": 2,
      "byteOffset": 1572768,
      "componentType": 5126,
      "count": 58995,
      "max": [
        168.33306884765625,
        101.96755981445313,
        16.066606521606445
      ],
      "min": [
        -242.7938232421875,
        -166.63523864746094,
        -66.21940612792969
      ],
      "type": "VEC3"
    },
    {
      "bufferView": 2,
      "byteOffset": 2280708,
      "componentType": 5126,
      "count": 58995,
      "max": [
        0.9999480247497559,
        0.9994604587554932,
        0.9999972581863403
      ],
      "min": [
        -0.9999991655349731,
        -0.9999711513519287,
        -0.9997485876083374
      ],
      "type": "VEC3"
    },
    {
      "bufferView": 1,
      "byteOffset": 524256,
      "componentType": 5126,
      "count": 58995,
      "max": [
        0.9970881938934326,
        0.9966875910758972
      ],
      "min": [
        0.0027441978454589844,
        0.002712876070290804
      ],
      "type": "VEC2"
    },
    {
      "bufferView": 0,
      "byteOffset": 1357572,
      "componentType": 5125,
      "count": 294390,
      "type": "SCALAR"
    }
  ],
  "asset": {
    "extras": {
      "author": "GSXNet (https://sketchfab.com/gsxn)",
      "license": "CC-BY-NC-4.0 (http://creativecommons.org/licenses/by-nc/4.0/)",
      "source": "https://sketchfab.com/3d-models/dead-sea-qumran-bf4bd5df05134faea2c86bc85cb90a3d",
      "title": "Dead Sea Qumran"
    },
    "generator": "Sketchfab-12.67.0",
    "version": "2.0"
  },
  "bufferViews": [
    {
      "buffer": 0,
      "byteLength": 2535132,
      "name": "floatBufferViews",
      "target": 34963
    },
    {
      "buffer": 0,
      "byteLength": 996216,
      "byteOffset": 2535132,
      "byteStride": 8,
      "name": "floatBufferViews",
      "target": 34962
    },
    {
      "buffer": 0,
      "byteLength": 2988648,
      "byteOffset": 3531348,
      "byteStride": 12,
      "name": "floatBufferViews",
      "target": 34962
    }
  ],
  "buffers": [
    {
      "byteLength": 6519996,
      "uri": "scene.bin"
    }
  ],
  "extensionsUsed": [
    "KHR_materials_unlit"
  ],
  "images": [
    {
      "uri": "textures/Material.001_baseColor.png"
    }
  ],
  "materials": [
    {
      "doubleSided": true,
      "extensions": {
        "KHR_materials_unlit": {}
      },
      "name": "Material.001",
      "pbrMetallicRoughness": {
        "baseColorTexture": {
          "index": 0
        },
        "metallicFactor": 0.0
      }
    }
  ],
  "meshes": [
    {
      "name": "Model.001_Material.001_0",
      "primitives": [
        {
          "attributes": {
            "NORMAL": 1,
            "POSITION": 0,
            "TEXCOORD_0": 2
          },
          "indices": 3,
          "material": 0,
          "mode": 4
        }
      ]
    },
    {
      "name": "Model.001_Material.001_0",
      "primitives": [
        {
          "attributes": {
            "NORMAL": 5,
            "POSITION": 4,
            "TEXCOORD_0": 6
          },
          "indices": 7,
          "material": 0,
          "mode": 4
        }
      ]
    }
  ],
  "nodes": [
    {
      "children": [
        1
      ],
      "matrix": [
        -0.005507315691838377,
        -7.0636577643209504e-06,
        -1.0093256367998094e-05,
        0.0,
        -1.0109368154219683e-05,
        1.257581014129215e-05,
        0.0055073058439658595,
        0.0,
        -7.0405800187958376e-06,
        0.005507310439639701,
        -1.258874444989678e-05,
        0.0,
        -1516.7406005859375,
        8587.763671874998,
        6820.785644531252,
        1.0
      ],
      "name": "Sketchfab_model"
    },
    {
      "children": [
        2
      ],
      "matrix": [
        1.0,
        0.0,
        0.0,
        0.0,
        0.0,
        0.0,
        1.0,
        0.0,
        0.0,
        -1.0,
        0.0,
        0.0,
        0.0,
        0.0,
        0.0,
        1.0
      ],
      "name": "7b16ca784678427ab8a9de9d05bb46fb.fbx"
    },
    {
      "children": [
        3
      ],
      "name": "RootNode"
    },
    {
      "children": [
        4,
        5
      ],
      "matrix": [
        100.0,
        0.0,
        0.0,
        0.0,
        0.0,
        -1.629206793918314e-05,
        -99.99999999999868,
        0.0,
        0.0,
        99.99999999999868,
        -1.629206793918314e-05,
        0.0,
        0.0,
        0.0,
        0.0,
        1.0
      ],
      "name": "Model.001"
    },
    {
      "mesh": 0,
      "name": "Model.001_Material.001_0"
    },
    {
      "mesh": 1,
      "name": "Model.001_Material.001_0"
    }
  ],
  "samplers": [
    {
      "magFilter": 9729,
      "minFilter": 9987,
      "wrapS": 10497,
      "wrapT": 10497
    }
  ],
  "scene": 0,
  "scenes": [
    {
      "name": "Sketchfab_Scene",
      "nodes": [
        0
      ]
    }
  ],
  "textures": [
    {
      "sampler": 0,
      "source": 0
    }
  ]
}
